<?xml version="1.0" encoding="UTF-8"?>
<svg width="592px" height="330px" viewBox="0 0 592 330" version="1.1" xmlns="http://www.w3.org/2000/svg" xmlns:xlink="http://www.w3.org/1999/xlink">
    <!-- Generator: Sketch 43.2 (39069) - http://www.bohemiancoding.com/sketch -->
    <title>gdg_dus_google_colors</title>
    <desc>Created with Sketch.</desc>
    <defs>
        <polygon id="path-1" points="102.077 0.1749 102.077 104.7949 0.1374 104.7949 0.1374 0.1749 102.077 0.1749"></polygon>
        <polygon id="path-3" points="8.58389965e-16 25.7981 8.58389965e-16 0.1981 25.6003 0.1981 25.6003 25.7981 0 25.7981"></polygon>
        <polygon id="path-5" points="8.58389965e-16 25.9983 8.58389965e-16 0.3983 25.6003 0.3983 25.6003 25.9983 0 25.9983"></polygon>
    </defs>
    <g id="Page-1" stroke="none" stroke-width="1" fill="none" fill-rule="evenodd">
        <g id="gdg_dus_google_colors">
            <g id="Page-1" transform="translate(65.000000, 52.000000)">
                <path d="M22.1257,201.2941 L22.1257,221.4521 L24.2987,221.4521 C25.3577,221.4521 26.3077,221.2511 27.1457,220.8491 C27.9827,220.4461 28.6947,219.8631 29.2777,219.0991 C29.8607,218.3341 30.3077,217.4051 30.6157,216.3131 C30.9247,215.2201 31.0787,213.9761 31.0787,212.5801 L31.0787,210.1261 C31.0787,208.8121 30.9277,207.6141 30.6257,206.5351 C30.3237,205.4551 29.8747,204.5261 29.2777,203.7481 C28.6817,202.9711 27.9427,202.3671 27.0647,201.9381 C26.1867,201.5091 25.1707,201.2941 24.0177,201.2941 L22.1257,201.2941 Z M16.4327,225.9991 L16.4327,196.7071 L24.0177,196.7071 C25.9617,196.7071 27.7227,197.0391 29.2987,197.7031 C30.8737,198.3671 32.2217,199.2921 33.3417,200.4801 C34.4617,201.6661 35.3267,203.0851 35.9377,204.7341 C36.5477,206.3841 36.8527,208.1941 36.8527,210.1661 L36.8527,212.5801 C36.8527,214.5521 36.5477,216.3591 35.9377,218.0021 C35.3267,219.6461 34.4717,221.0601 33.3717,222.2471 C32.2717,223.4341 30.9507,224.3561 29.4087,225.0141 C27.8657,225.6711 26.1627,225.9991 24.2987,225.9991 L16.4327,225.9991 Z" id="Fill-1" fill="#D12F2D"></path>
                <path d="M73.7693,191.5773 C73.7693,191.2283 73.8353,190.9003 73.9703,190.5923 C74.1043,190.2833 74.2913,190.0173 74.5333,189.7973 C74.7753,189.5753 75.0633,189.4013 75.3983,189.2733 C75.7333,189.1463 76.1023,189.0823 76.5043,189.0823 C76.9073,189.0823 77.2763,189.1463 77.6113,189.2733 C77.9463,189.4013 78.2353,189.5753 78.4763,189.7973 C78.7173,190.0173 78.9063,190.2833 79.0403,190.5923 C79.1733,190.9003 79.2413,191.2283 79.2413,191.5773 C79.2413,191.9393 79.1733,192.2743 79.0403,192.5833 C78.9063,192.8913 78.7173,193.1603 78.4763,193.3883 C78.2353,193.6163 77.9463,193.7943 77.6113,193.9213 C77.2763,194.0493 76.9073,194.1123 76.5043,194.1123 C76.1023,194.1123 75.7333,194.0493 75.3983,193.9213 C75.0633,193.7943 74.7753,193.6163 74.5333,193.3883 C74.2913,193.1603 74.1043,192.8913 73.9703,192.5833 C73.8353,192.2743 73.7693,191.9393 73.7693,191.5773 L73.7693,191.5773 Z M64.1123,191.5773 C64.1123,191.2283 64.1793,190.9003 64.3133,190.5923 C64.4473,190.2833 64.6353,190.0153 64.8763,189.7873 C65.1183,189.5583 65.4063,189.3813 65.7423,189.2543 C66.0773,189.1263 66.4463,189.0623 66.8483,189.0623 C67.2503,189.0623 67.6193,189.1263 67.9553,189.2543 C68.2903,189.3813 68.5793,189.5583 68.8203,189.7873 C69.0613,190.0153 69.2483,190.2833 69.3833,190.5923 C69.5173,190.9003 69.5843,191.2283 69.5843,191.5773 C69.5843,191.9263 69.5173,192.2553 69.3833,192.5623 C69.2483,192.8723 69.0613,193.1373 68.8203,193.3573 C68.5793,193.5793 68.2903,193.7533 67.9553,193.8813 C67.6193,194.0083 67.2503,194.0713 66.8483,194.0713 C66.4463,194.0713 66.0773,194.0083 65.7423,193.8813 C65.4063,193.7533 65.1183,193.5793 64.8763,193.3573 C64.6353,193.1373 64.4473,192.8723 64.3133,192.5623 C64.1793,192.2553 64.1123,191.9263 64.1123,191.5773 L64.1123,191.5773 Z M81.3933,196.7073 L81.4143,216.1213 C81.4143,217.7583 81.1893,219.2133 80.7403,220.4863 C80.2903,221.7613 79.6393,222.8373 78.7883,223.7163 C77.9363,224.5943 76.8973,225.2623 75.6693,225.7183 C74.4433,226.1733 73.0443,226.4013 71.4753,226.4013 C69.9993,226.4013 68.6683,226.1733 67.4823,225.7183 C66.2943,225.2623 65.2793,224.5983 64.4343,223.7253 C63.5893,222.8543 62.9353,221.7773 62.4723,220.4973 C62.0093,219.2163 61.7783,217.7583 61.7783,216.1213 L61.7983,196.7073 L67.4523,196.7073 L67.4713,216.1213 C67.4853,218.0123 67.8313,219.4403 68.5073,220.4063 C69.1853,221.3723 70.1743,221.8543 71.4753,221.8543 C72.8563,221.8543 73.9133,221.3723 74.6443,220.4063 C75.3743,219.4403 75.7473,218.0123 75.7603,216.1213 L75.7813,196.7073 L81.3933,196.7073 Z" id="Fill-3" fill="#D12F2D"></path>
                <path d="M122.4148,218.3547 C122.4148,217.8317 122.3238,217.3417 122.1438,216.8857 C121.9618,216.4297 121.6528,216.0037 121.2178,215.6087 C120.7808,215.2127 120.2118,214.8507 119.5078,214.5217 C118.8038,214.1937 117.9288,213.8877 116.8818,213.6067 C115.6078,213.2577 114.3908,212.8217 113.2298,212.2987 C112.0698,211.7757 111.0478,211.1457 110.1628,210.4077 C109.2768,209.6697 108.5698,208.8117 108.0398,207.8327 C107.5108,206.8537 107.2458,205.7267 107.2458,204.4537 C107.2458,203.2187 107.5068,202.0987 108.0298,201.0927 C108.5538,200.0867 109.2768,199.2287 110.2028,198.5177 C111.1288,197.8067 112.2218,197.2607 113.4818,196.8777 C114.7428,196.4967 116.1108,196.3047 117.5858,196.3047 C119.1148,196.3047 120.5138,196.5267 121.7808,196.9687 C123.0488,197.4117 124.1378,198.0327 125.0498,198.8307 C125.9618,199.6277 126.6728,200.5777 127.1828,201.6767 C127.6918,202.7767 127.9468,203.9837 127.9468,205.2977 L122.4348,205.2977 C122.4078,204.6407 122.2908,204.0377 122.0828,203.4877 C121.8748,202.9377 121.5658,202.4647 121.1568,202.0687 C120.7478,201.6727 120.2378,201.3647 119.6278,201.1437 C119.0178,200.9217 118.3038,200.8117 117.4848,200.8117 C116.7338,200.8117 116.0668,200.9017 115.4838,201.0837 C114.8998,201.2637 114.4078,201.5187 114.0058,201.8477 C113.6028,202.1757 113.2978,202.5657 113.0898,203.0147 C112.8818,203.4637 112.7778,203.9507 112.7778,204.4727 C112.7778,205.0227 112.9158,205.5187 113.1898,205.9617 C113.4658,206.4047 113.8638,206.8037 114.3878,207.1587 C114.9108,207.5137 115.5438,207.8397 116.2888,208.1337 C117.0328,208.4297 117.8748,208.7047 118.8128,208.9587 C120.1538,209.3487 121.3888,209.8247 122.5158,210.3877 C123.6418,210.9517 124.6098,211.6187 125.4228,212.3897 C126.2328,213.1607 126.8638,214.0397 127.3128,215.0247 C127.7628,216.0107 127.9868,217.1067 127.9868,218.3137 C127.9868,219.6017 127.7288,220.7457 127.2128,221.7447 C126.6958,222.7437 125.9818,223.5877 125.0698,224.2797 C124.1578,224.9697 123.0708,225.4937 121.8108,225.8477 C120.5508,226.2037 119.1758,226.3807 117.6858,226.3807 C116.7618,226.3807 115.8388,226.2967 114.9208,226.1297 C114.0018,225.9617 113.1228,225.7047 112.2848,225.3557 C111.4468,225.0067 110.6658,224.5707 109.9408,224.0477 C109.2178,223.5247 108.5898,222.9147 108.0608,222.2167 C107.5298,221.5197 107.1148,220.7287 106.8128,219.8427 C106.5118,218.9587 106.3598,217.9787 106.3598,216.9057 L111.9128,216.9057 C111.9388,217.7917 112.0938,218.5487 112.3758,219.1787 C112.6568,219.8097 113.0498,220.3267 113.5528,220.7287 C114.0558,221.1307 114.6588,221.4257 115.3628,221.6137 C116.0668,221.8017 116.8418,221.8947 117.6858,221.8947 C118.4368,221.8947 119.1048,221.8077 119.6878,221.6337 C120.2718,221.4587 120.7648,221.2177 121.1668,220.9097 C121.5688,220.6007 121.8778,220.2287 122.0928,219.7927 C122.3078,219.3577 122.4148,218.8767 122.4148,218.3547" id="Fill-5" fill="#D12F2D"></path>
                <path d="M167.74,218.3547 C167.74,217.8317 167.649,217.3417 167.469,216.8857 C167.288,216.4297 166.979,216.0037 166.543,215.6087 C166.107,215.2127 165.537,214.8507 164.833,214.5217 C164.129,214.1937 163.254,213.8877 162.208,213.6067 C160.933,213.2577 159.717,212.8217 158.556,212.2987 C157.396,211.7757 156.374,211.1457 155.488,210.4077 C154.603,209.6697 153.895,208.8117 153.366,207.8327 C152.836,206.8537 152.571,205.7267 152.571,204.4537 C152.571,203.2187 152.833,202.0987 153.356,201.0927 C153.879,200.0867 154.603,199.2287 155.528,198.5177 C156.454,197.8067 157.547,197.2607 158.807,196.8777 C160.068,196.4967 161.436,196.3047 162.912,196.3047 C164.441,196.3047 165.839,196.5267 167.106,196.9687 C168.374,197.4117 169.464,198.0327 170.376,198.8307 C171.288,199.6277 171.998,200.5777 172.509,201.6767 C173.017,202.7767 173.272,203.9837 173.272,205.2977 L167.761,205.2977 C167.733,204.6407 167.616,204.0377 167.408,203.4877 C167.2,202.9377 166.891,202.4647 166.483,202.0687 C166.074,201.6727 165.564,201.3647 164.954,201.1437 C164.344,200.9217 163.63,200.8117 162.811,200.8117 C162.06,200.8117 161.393,200.9017 160.809,201.0837 C160.226,201.2637 159.733,201.5187 159.331,201.8477 C158.928,202.1757 158.623,202.5657 158.416,203.0147 C158.208,203.4637 158.103,203.9507 158.103,204.4727 C158.103,205.0227 158.241,205.5187 158.516,205.9617 C158.791,206.4047 159.19,206.8037 159.713,207.1587 C160.236,207.5137 160.87,207.8397 161.614,208.1337 C162.358,208.4297 163.2,208.7047 164.139,208.9587 C165.48,209.3487 166.715,209.8247 167.841,210.3877 C168.968,210.9517 169.936,211.6187 170.748,212.3897 C171.559,213.1607 172.189,214.0397 172.638,215.0247 C173.088,216.0107 173.313,217.1067 173.313,218.3137 C173.313,219.6017 173.054,220.7457 172.538,221.7447 C172.022,222.7437 171.307,223.5877 170.395,224.2797 C169.483,224.9697 168.397,225.4937 167.136,225.8477 C165.876,226.2037 164.501,226.3807 163.012,226.3807 C162.087,226.3807 161.165,226.2967 160.246,226.1297 C159.327,225.9617 158.449,225.7047 157.611,225.3557 C156.772,225.0067 155.991,224.5707 155.267,224.0477 C154.543,223.5247 153.916,222.9147 153.386,222.2167 C152.856,221.5197 152.44,220.7287 152.138,219.8427 C151.837,218.9587 151.686,217.9787 151.686,216.9057 L157.239,216.9057 C157.265,217.7917 157.42,218.5487 157.701,219.1787 C157.983,219.8097 158.375,220.3267 158.879,220.7287 C159.382,221.1307 159.985,221.4257 160.689,221.6137 C161.393,221.8017 162.168,221.8947 163.012,221.8947 C163.763,221.8947 164.43,221.8077 165.014,221.6337 C165.597,221.4587 166.091,221.2177 166.493,220.9097 C166.895,220.6007 167.204,220.2287 167.419,219.7927 C167.633,219.3577 167.74,218.8767 167.74,218.3547" id="Fill-7" fill="#D12F2D"></path>
                <polygon id="Fill-9" fill="#D12F2D" points="215.8826 213.1643 203.8526 213.1643 203.8526 221.4333 217.9136 221.4333 217.9136 225.9993 198.1786 225.9993 198.1786 196.7073 217.8546 196.7073 217.8546 201.3143 203.8526 201.3143 203.8526 208.6973 215.8826 208.6973"></polygon>
                <polygon id="Fill-11" fill="#D12F2D" points="249.238 221.4328 262.959 221.4328 262.959 225.9988 243.564 225.9988 243.564 196.7068 249.238 196.7068"></polygon>
                <path d="M294.0808,201.2941 L294.0808,221.4521 L296.2538,221.4521 C297.3128,221.4521 298.2628,221.2511 299.1008,220.8491 C299.9378,220.4461 300.6498,219.8631 301.2328,219.0991 C301.8158,218.3341 302.2628,217.4051 302.5708,216.3131 C302.8798,215.2201 303.0338,213.9761 303.0338,212.5801 L303.0338,210.1261 C303.0338,208.8121 302.8828,207.6141 302.5808,206.5351 C302.2788,205.4551 301.8298,204.5261 301.2328,203.7481 C300.6368,202.9711 299.8978,202.3671 299.0198,201.9381 C298.1418,201.5091 297.1258,201.2941 295.9728,201.2941 L294.0808,201.2941 Z M288.3878,225.9991 L288.3878,196.7071 L295.9728,196.7071 C297.9168,196.7071 299.6778,197.0391 301.2538,197.7031 C302.8288,198.3671 304.1768,199.2921 305.2968,200.4801 C306.4168,201.6661 307.2818,203.0851 307.8928,204.7341 C308.5028,206.3841 308.8078,208.1941 308.8078,210.1661 L308.8078,212.5801 C308.8078,214.5521 308.5028,216.3591 307.8928,218.0021 C307.2818,219.6461 306.4268,221.0601 305.3268,222.2471 C304.2268,223.4341 302.9058,224.3561 301.3638,225.0141 C299.8208,225.6711 298.1178,225.9991 296.2538,225.9991 L288.3878,225.9991 Z" id="Fill-13" fill="#D12F2D"></path>
                <path d="M348.5408,209.2004 C348.5408,208.0074 348.4428,206.9074 348.2488,205.9014 C348.0548,204.8954 347.7488,204.0304 347.3338,203.3054 C346.9178,202.5824 346.3848,202.0154 345.7338,201.6064 C345.0838,201.1974 344.2958,200.9924 343.3698,200.9924 C342.4578,200.9924 341.6928,201.1974 341.0768,201.6064 C340.4598,202.0154 339.9638,202.5824 339.5878,203.3054 C339.2128,204.0304 338.9438,204.8954 338.7828,205.9014 C338.6218,206.9074 338.5418,208.0074 338.5418,209.2004 L338.5418,213.5064 C338.5418,214.6864 338.6218,215.7794 338.7828,216.7854 C338.9438,217.7914 339.2128,218.6634 339.5878,219.4004 C339.9638,220.1384 340.4598,220.7154 341.0768,221.1314 C341.6928,221.5464 342.4648,221.7544 343.3908,221.7544 C344.3028,221.7544 345.0838,221.5464 345.7338,221.1314 C346.3848,220.7154 346.9138,220.1414 347.3228,219.4104 C347.7318,218.6794 348.0378,217.8104 348.2388,216.8044 C348.4398,215.7994 348.5408,214.6994 348.5408,213.5064 L348.5408,209.2004 Z M354.2738,213.5064 C354.2738,215.3844 354.0258,217.1144 353.5298,218.6964 C353.0328,220.2794 352.3158,221.6404 351.3768,222.7804 C350.4378,223.9204 349.2948,224.8084 347.9468,225.4454 C346.5998,226.0834 345.0798,226.4014 343.3908,226.4014 C341.6998,226.4014 340.1978,226.0834 338.8838,225.4454 C337.5688,224.8084 336.4628,223.9174 335.5638,222.7704 C334.6658,221.6234 333.9808,220.2634 333.5128,218.6864 C333.0428,217.1104 332.8088,215.3844 332.8088,213.5064 L332.8088,209.2414 C332.8088,207.3634 333.0428,205.6334 333.5128,204.0514 C333.9808,202.4684 334.6658,201.1024 335.5638,199.9564 C336.4628,198.8094 337.5658,197.9144 338.8738,197.2704 C340.1818,196.6274 341.6808,196.3044 343.3698,196.3044 C345.0728,196.3044 346.5998,196.6274 347.9468,197.2704 C349.2948,197.9144 350.4378,198.8094 351.3768,199.9564 C352.3158,201.1024 353.0328,202.4684 353.5298,204.0514 C354.0258,205.6334 354.2738,207.3634 354.2738,209.2414 L354.2738,213.5064 Z" id="Fill-15" fill="#D12F2D"></path>
                <path d="M384.8132,210.468 L388.9982,210.468 C390.5932,210.468 391.8242,210.063 392.6892,209.251 C393.5542,208.44 393.9872,207.329 393.9872,205.921 C393.9872,204.46 393.5642,203.323 392.7192,202.512 C391.8752,201.7 390.6262,201.294 388.9772,201.294 L384.8132,201.294 L384.8132,210.468 Z M389.0982,215.055 L384.8132,215.055 L384.8132,225.999 L379.1602,225.999 L379.1602,196.707 L388.9772,196.707 C390.6002,196.707 392.0692,196.899 393.3832,197.28 C394.6982,197.663 395.8212,198.223 396.7522,198.96 C397.6852,199.698 398.4032,200.617 398.9062,201.717 C399.4092,202.817 399.6602,204.091 399.6602,205.539 C399.6602,206.585 399.5362,207.528 399.2882,208.365 C399.0402,209.204 398.6842,209.955 398.2212,210.619 C397.7582,211.282 397.2022,211.864 396.5512,212.36 C395.9012,212.856 395.1732,213.284 394.3692,213.647 L400.6662,225.738 L400.6662,225.999 L394.6102,225.999 L389.0982,215.055 Z" id="Fill-17" fill="#D12F2D"></path>
                <polygon id="Fill-19" fill="#D12F2D" points="443.075 213.8684 430.521 213.8684 430.521 225.9994 424.848 225.9994 424.848 196.7074 444.644 196.7074 444.644 201.3144 430.521 201.3144 430.521 209.2814 443.075 209.2814"></polygon>
                <polygon id="Fill-21" fill="#F4BA2D" points="84.7498 102.2702 74.1198 83.8802 48.6008 128.0002 70.4498 128.0002 85.0398 102.7702"></polygon>
                <polygon id="Fill-23" fill="#188D42" points="62.6199 64.0002 74.1199 83.8802 48.5999 128.0002 25.5999 128.0002"></polygon>
                <polygon id="Fill-25" fill="#4368B1" points="48.6003 0.0002 25.6003 0.0002 85.0393 102.7702 96.5303 82.9002 96.5393 82.8802"></polygon>
                <path d="M103.99,70.0002 C106.14,66.2902 106.14,61.7102 103.99,58.0002 L70.45,0.0002 L48.6,0.0002 L96.54,82.8802 L103.99,70.0002 Z" id="Fill-27" fill="#CC2C29"></path>
                <path d="M299.1873,95.5168 C320.8763,95.5168 334.3173,83.4768 334.3173,60.8768 C334.3173,38.4068 320.8763,26.2368 299.1873,26.2368 L283.1173,26.2368 L283.1173,95.5168 L299.1873,95.5168 Z M268.0573,11.1768 L298.6573,11.1768 C329.8173,11.1768 349.3763,31.8568 349.3763,60.8768 C349.3763,90.0268 329.8073,110.5778 298.6573,110.5778 L268.0573,110.5778 L268.0573,11.1768 Z" id="Fill-29" fill="#D12F2D"></path>
                <path d="M255.4871,56.3669 L207.8171,56.3669 L207.8171,71.1269 L241.4261,71.1269 C240.3171,78.6569 237.7071,84.5269 233.7971,88.4469 C228.8171,93.4269 221.0371,98.9069 207.3871,98.9069 C186.3371,98.9069 169.8771,81.9369 169.8771,60.8869 C169.8771,39.8369 186.3371,22.8669 207.3871,22.8669 C218.7371,22.8669 227.0371,27.3369 233.1571,33.0769 L243.2371,22.9969 C234.6871,14.8269 223.3371,8.5769 207.3861,8.5769 C178.5571,8.5769 154.3171,32.0469 154.3171,60.8869 C154.3171,89.7169 178.5571,113.1969 207.3861,113.1969 C222.9471,113.1969 234.6871,108.0969 243.8771,98.5269 C253.3171,89.0869 256.2571,75.8169 256.2571,65.0969 C256.2571,61.7769 255.9971,58.9169 255.4871,56.3669" id="Fill-31" fill="#D12F2D"></path>
                <g id="Group-35" transform="translate(359.000000, 8.402000)">
                    <mask id="mask-2" fill="white">
                        <use xlink:href="#path-1"></use>
                    </mask>
                    <g id="Clip-34"></g>
                    <path d="M101.3074,47.9649 L53.6374,47.9649 L53.6374,62.7249 L87.2464,62.7249 C86.1374,70.2549 83.5274,76.1249 79.6174,80.0449 C74.6374,85.0249 66.8574,90.5049 53.2064,90.5049 C32.1574,90.5049 15.6974,73.5349 15.6974,52.4849 C15.6974,31.4349 32.1574,14.4649 53.2064,14.4649 C64.5574,14.4649 72.8574,18.9349 78.9774,24.6749 L89.0574,14.5949 C80.5064,6.4249 69.1574,0.1749 53.2064,0.1749 C24.3764,0.1749 0.1374,23.6449 0.1374,52.4849 C0.1374,81.3149 24.3764,104.7949 53.2064,104.7949 C68.7674,104.7949 80.5064,99.6949 89.6974,90.1249 C99.1374,80.6849 102.0774,67.4149 102.0774,56.6949 C102.0774,53.3749 101.8174,50.5149 101.3074,47.9649" id="Fill-33" fill="#D12F2D" mask="url(#mask-2)"></path>
                </g>
                <g id="Group-38" transform="translate(0.000000, 25.402000)">
                    <mask id="mask-4" fill="white">
                        <use xlink:href="#path-3"></use>
                    </mask>
                    <g id="Clip-37"></g>
                    <path d="M25.6003,12.9981 C25.6003,20.0671 19.8693,25.7981 12.7993,25.7981 C5.7313,25.7981 -0.0007,20.0671 -0.0007,12.9981 C-0.0007,5.9291 5.7313,0.1981 12.7993,0.1981 C19.8693,0.1981 25.6003,5.9291 25.6003,12.9981" id="Fill-36" fill="#4368B1" mask="url(#mask-4)"></path>
                </g>
                <g id="Group-41" transform="translate(0.000000, 76.402000)">
                    <mask id="mask-6" fill="white">
                        <use xlink:href="#path-5"></use>
                    </mask>
                    <g id="Clip-40"></g>
                    <path d="M25.6003,13.1983 C25.6003,20.2673 19.8693,25.9983 12.7993,25.9983 C5.7313,25.9983 -0.0007,20.2673 -0.0007,13.1983 C-0.0007,6.1293 5.7313,0.3983 12.7993,0.3983 C19.8693,0.3983 25.6003,6.1293 25.6003,13.1983" id="Fill-39" fill="#4368B1" mask="url(#mask-6)"></path>
                </g>
            </g>
        </g>
    </g>
</svg>