<?xml version="1.0" encoding="UTF-8"?>
<svg width="512px" height="512px" viewBox="0 0 512 512" version="1.1" xmlns="http://www.w3.org/2000/svg" xmlns:xlink="http://www.w3.org/1999/xlink">
    <!-- Generator: Sketch 43.2 (39069) - http://www.bohemiancoding.com/sketch -->
    <title>gdg_dus_logo_3</title>
    <desc>Created with Sketch.</desc>
    <defs></defs>
    <g id="Page-1" stroke="none" stroke-width="1" fill="none" fill-rule="evenodd">
        <g id="gdg_dus_logo_3">
            <g id="Group" transform="translate(149.000000, 128.000000)">
                <g id="Page-1">
                    <polygon id="Fill-21" fill="#F4BA2D" points="170.4996 204.5404 149.2396 167.7604 98.2016 256.0004 141.8996 256.0004 171.0796 205.5404"></polygon>
                    <polygon id="Fill-23" fill="#188D42" points="126.2398 128.0004 149.2398 167.7604 98.1998 256.0004 52.1998 256.0004"></polygon>
                    <polygon id="Fill-25" fill="#4368B1" points="98.2006 0.0004 52.2006 0.0004 171.0786 205.5404 194.0606 165.8004 194.0786 165.7604"></polygon>
                    <path d="M208.98,140.0004 C213.28,132.5804 213.28,123.4204 208.98,116.0004 L141.9,0.0004 L98.2,0.0004 L194.08,165.7604 L208.98,140.0004 Z" id="Fill-27" fill="#CC2C29"></path>
                    <path d="M52.2006,76.8002 C52.2006,90.9382 40.7386,102.4002 26.5986,102.4002 C12.4626,102.4002 0.9986,90.9382 0.9986,76.8002 C0.9986,62.6622 12.4626,51.2002 26.5986,51.2002 C40.7386,51.2002 52.2006,62.6622 52.2006,76.8002" id="Fill-36" fill="#4368B1"></path>
                    <path d="M52.2006,179.2006 C52.2006,193.3386 40.7386,204.8006 26.5986,204.8006 C12.4626,204.8006 0.9986,193.3386 0.9986,179.2006 C0.9986,165.0626 12.4626,153.6006 26.5986,153.6006 C40.7386,153.6006 52.2006,165.0626 52.2006,179.2006" id="Fill-39" fill="#4368B1"></path>
                </g>
            </g>
        </g>
    </g>
</svg>