<svg xmlns="http://www.w3.org/2000/svg" viewBox="0 0 592 330" xmlns:xlink="http://www.w3.org/1999/xlink"><title>gdg_dus_google_colors</title><defs><path id="a" d="M102.077.175v104.62H.137V.175h101.94z"/><path id="c" d="M0 25.798V.198h25.6v25.6H0z"/><path id="e" d="M0 25.998V.398h25.6v25.6H0z"/></defs><g fill="none" fill-rule="evenodd"><path fill="#D12F2D" d="M87.126 253.294v20.158H89.3c1.058 0 2.008-.2 2.846-.603.837-.41 1.55-.99 2.132-1.75.583-.77 1.03-1.7 1.338-2.79.31-1.1.463-2.34.463-3.74v-2.46c0-1.32-.16-2.51-.46-3.59-.3-1.08-.75-2.01-1.35-2.79-.6-.78-1.34-1.38-2.22-1.81-.88-.43-1.9-.65-3.05-.65h-1.89zM81.433 278v-29.293h7.585c1.944 0 3.705.332 5.28.996 1.576.664 2.924 1.59 4.044 2.777 1.12 1.186 1.985 2.605 2.596 4.254.61 1.65.915 3.46.915 5.432v2.414c0 1.972-.305 3.78-.915 5.422-.61 1.644-1.466 3.058-2.566 4.245-1.1 1.187-2.42 2.11-3.963 2.767-1.55.657-3.25.985-5.11.985h-7.87zm57.337-34.423c0-.35.065-.677.2-.985.134-.31.32-.575.563-.795.242-.222.53-.396.865-.524.335-.127.704-.19 1.106-.19.403 0 .772.063 1.107.19.34.128.63.302.87.524.24.22.43.486.57.795.14.308.2.636.2.985 0 .362-.06.697-.2 1.006-.13.308-.32.577-.56.805-.24.228-.53.406-.86.533-.33.13-.7.2-1.1.2-.4 0-.77-.06-1.1-.19-.33-.13-.62-.3-.86-.53-.24-.23-.43-.49-.56-.8-.13-.31-.2-.64-.2-1zm-9.658 0c0-.35.067-.677.2-.985.135-.31.323-.577.564-.805.242-.23.53-.406.866-.533.335-.128.704-.192 1.106-.192.402 0 .77.064 1.107.192.335.127.624.304.865.533.24.228.428.496.563.805.134.308.2.636.2.985 0 .35-.066.678-.2.985-.135.31-.322.575-.563.795-.24.222-.53.396-.865.524-.336.13-.705.19-1.107.19s-.77-.06-1.106-.19c-.336-.12-.624-.3-.866-.52-.24-.22-.43-.48-.563-.79-.134-.3-.2-.63-.2-.98zm17.28 5.13l.022 19.414c0 1.64-.225 3.1-.674 4.37-.45 1.28-1.1 2.35-1.952 3.23-.852.88-1.89 1.55-3.12 2-1.225.46-2.624.69-4.193.69-1.476 0-2.807-.22-3.993-.68-1.188-.45-2.203-1.12-3.048-1.99-.845-.87-1.5-1.94-1.962-3.22-.463-1.28-.694-2.74-.694-4.38l.02-19.41h5.654l.02 19.42c.013 1.89.36 3.32 1.035 4.29.678.97 1.667 1.45 2.968 1.45 1.38 0 2.438-.48 3.17-1.44.73-.96 1.102-2.39 1.115-4.28l.02-19.41h5.613zm41.023 21.648c0-.523-.09-1.013-.27-1.47-.183-.455-.492-.88-.927-1.276-.437-.4-1.006-.76-1.71-1.09-.704-.33-1.58-.64-2.626-.92-1.274-.35-2.49-.79-3.652-1.31-1.16-.53-2.182-1.16-3.067-1.89-.886-.74-1.593-1.6-2.123-2.58-.53-.98-.794-2.11-.794-3.38 0-1.24.26-2.36.784-3.36.524-1.01 1.247-1.87 2.173-2.58.926-.71 2.02-1.26 3.28-1.64 1.26-.38 2.628-.57 4.103-.57 1.53 0 2.928.22 4.195.66 1.27.44 2.36 1.06 3.27 1.86.92.8 1.63 1.75 2.14 2.85.51 1.1.77 2.3.77 3.62h-5.51c-.02-.66-.14-1.26-.35-1.81s-.52-1.02-.92-1.42c-.41-.4-.92-.71-1.53-.93-.61-.23-1.32-.34-2.14-.34-.75 0-1.42.09-2 .27-.58.18-1.07.43-1.48.76-.4.32-.7.71-.91 1.16-.2.45-.31.94-.31 1.46 0 .55.14 1.04.41 1.49.28.44.68.84 1.2 1.19.53.35 1.16.68 1.9.97.75.29 1.59.57 2.53.82 1.34.39 2.58.86 3.71 1.43 1.13.56 2.09 1.23 2.91 2 .81.77 1.44 1.65 1.89 2.63.45.98.68 2.08.68 3.29 0 1.28-.26 2.43-.77 3.43-.52 1-1.23 1.84-2.15 2.53-.91.69-2 1.21-3.26 1.57-1.26.36-2.63.53-4.12.53-.92 0-1.84-.09-2.76-.25-.92-.17-1.79-.43-2.63-.78-.84-.35-1.62-.79-2.34-1.31-.72-.53-1.35-1.14-1.88-1.83-.53-.7-.94-1.49-1.25-2.38-.3-.89-.45-1.87-.45-2.94h5.56c.02.89.18 1.645.46 2.275.28.63.67 1.15 1.17 1.55.5.4 1.1.7 1.81.89.7.183 1.48.28 2.32.28.75 0 1.42-.09 2-.26.58-.18 1.08-.42 1.48-.73.4-.31.71-.68.92-1.117.215-.44.32-.92.32-1.44m45.32.003c0-.525-.09-1.015-.27-1.47-.18-.457-.49-.88-.925-1.28-.44-.4-1.01-.76-1.71-1.09-.71-.33-1.58-.634-2.63-.915-1.28-.35-2.49-.79-3.655-1.31-1.16-.525-2.18-1.155-3.07-1.89-.887-.74-1.59-1.6-2.12-2.58s-.79-2.106-.79-3.38c0-1.234.26-2.354.783-3.36.524-1.006 1.25-1.864 2.17-2.575.93-.71 2.02-1.25 3.28-1.64 1.26-.38 2.63-.57 4.106-.57 1.53 0 2.93.22 4.19.664 1.27.44 2.36 1.06 3.27 1.86.91.8 1.62 1.75 2.13 2.84.51 1.1.77 2.304.77 3.62h-5.51c-.03-.66-.15-1.26-.36-1.81s-.52-1.02-.925-1.42c-.41-.4-.92-.71-1.53-.93-.61-.226-1.32-.336-2.14-.336-.75 0-1.41.09-2 .27-.58.18-1.07.435-1.48.764-.4.325-.7.715-.91 1.164-.21.45-.31.94-.31 1.46 0 .55.14 1.047.41 1.49.277.44.676.84 1.2 1.197s1.152.68 1.9.97c.74.29 1.582.57 2.52.82 1.34.39 2.578.87 3.7 1.43 1.13.56 2.1 1.23 2.91 2s1.44 1.65 1.89 2.63c.45.99.677 2.08.677 3.29 0 1.29-.26 2.43-.78 3.43s-1.23 1.84-2.14 2.538c-.914.69-2 1.21-3.26 1.57-1.26.36-2.636.53-4.125.53-.93 0-1.85-.08-2.77-.25-.92-.17-1.8-.424-2.64-.773-.84-.35-1.62-.78-2.34-1.3-.72-.527-1.35-1.137-1.88-1.83-.53-.7-.944-1.49-1.25-2.38-.3-.885-.45-1.865-.45-2.94h5.555c.03.89.18 1.648.46 2.278.29.63.68 1.15 1.18 1.55.51.4 1.11.7 1.81.88.71.19 1.48.28 2.33.28.75 0 1.42-.09 2-.26.58-.177 1.072-.42 1.48-.726.4-.31.71-.68.92-1.12.21-.436.32-.917.32-1.44m48.142-5.18h-12.03v8.27h14.06v4.6H263.2V248.7h19.674v4.607h-14v7.383h12.03m33.35 12.737h13.72V278h-19.4v-29.293h5.673m44.84 4.587v20.158h2.175c1.06 0 2.01-.2 2.845-.603.84-.41 1.55-.99 2.14-1.75.59-.77 1.03-1.7 1.34-2.79.31-1.1.467-2.34.467-3.74v-2.46c0-1.32-.15-2.51-.45-3.59-.3-1.08-.75-2.01-1.347-2.79-.596-.78-1.335-1.38-2.213-1.81-.88-.43-1.896-.65-3.05-.65h-1.89zM353.39 278v-29.293h7.585c1.944 0 3.705.332 5.28.996 1.576.664 2.924 1.59 4.044 2.777 1.12 1.186 1.98 2.605 2.59 4.254.61 1.65.91 3.46.91 5.432v2.414c0 1.972-.31 3.78-.92 5.422-.61 1.644-1.47 3.058-2.57 4.245-1.1 1.187-2.42 2.11-3.97 2.767-1.54.657-3.25.985-5.11.985h-7.87zm60.15-16.8c0-1.193-.097-2.293-.29-3.3-.195-1.005-.5-1.87-.916-2.595-.416-.723-.95-1.29-1.6-1.7-.65-.408-1.438-.613-2.364-.613-.912 0-1.677.205-2.293.614-.617.41-1.113.976-1.49 1.7-.374.724-.643 1.59-.804 2.595-.16 1.01-.24 2.11-.24 3.3v4.31c0 1.18.08 2.28.24 3.28.16 1.01.43 1.88.805 2.62.376.74.872 1.32 1.49 1.73.615.42 1.387.63 2.313.63.92 0 1.7-.21 2.35-.62.65-.41 1.18-.99 1.59-1.72.41-.73.72-1.6.92-2.6.2-1 .3-2.1.3-3.3v-4.31zm5.734 4.306c0 1.878-.248 3.608-.744 5.19-.497 1.583-1.214 2.944-2.153 4.084-.94 1.14-2.082 2.028-3.43 2.665-1.347.638-2.867.956-4.556.956-1.69 0-3.19-.31-4.5-.95-1.31-.63-2.42-1.53-3.32-2.67-.9-1.14-1.58-2.5-2.05-4.08-.47-1.57-.7-3.3-.7-5.18v-4.26c0-1.87.24-3.6.71-5.19.47-1.58 1.16-2.95 2.05-4.09.9-1.14 2.01-2.04 3.31-2.68 1.31-.64 2.81-.96 4.5-.96 1.71 0 3.23.32 4.58.97 1.35.65 2.49 1.54 3.43 2.69s1.66 2.51 2.16 4.1c.5 1.59.75 3.32.75 5.19v4.27zm30.54-3.038h4.184c1.595 0 2.826-.405 3.69-1.217.866-.81 1.3-1.92 1.3-3.33 0-1.46-.424-2.59-1.27-3.4-.843-.81-2.092-1.22-3.74-1.22h-4.165v9.18zm4.284 4.587h-4.285V278h-5.653v-29.293h9.817c1.623 0 3.092.192 4.406.573 1.315.383 2.438.943 3.37 1.68.932.738 1.65 1.657 2.153 2.757.503 1.1.754 2.374.754 3.822 0 1.04-.124 1.98-.372 2.82-.248.84-.604 1.59-1.067 2.25-.46.66-1.01 1.24-1.67 1.74-.65.49-1.37.92-2.18 1.28l6.3 12.09v.27h-6.05l-5.51-10.95zm53.977-1.187H495.52v12.13h-5.672v-29.29h19.796v4.606H495.52v7.967h12.555"/><path fill="#F4BA2D" d="M149.75 154.27l-10.63-18.39L113.6 180h21.85l14.59-25.23"/><path fill="#188D42" d="M127.62 116l11.5 19.88L113.6 180h-23"/><path fill="#4368B1" d="M113.6 52h-23l59.44 102.77 11.49-19.87.01-.02"/><path fill="#CC2C29" d="M168.99 122c2.15-3.71 2.15-8.29 0-12l-33.54-58H113.6l47.94 82.88 7.45-12.88z"/><path fill="#D12F2D" d="M364.187 147.517c21.69 0 35.13-12.04 35.13-34.64 0-22.47-13.44-34.64-35.13-34.64h-16.07v69.28h16.07zm-31.13-84.34h30.6c31.16 0 50.72 20.68 50.72 49.7 0 29.15-19.57 49.7-50.72 49.7h-30.6v-99.4zm-12.57 45.19h-47.67v14.76h33.61c-1.11 7.53-3.72 13.4-7.63 17.32-4.98 4.98-12.76 10.46-26.41 10.46-21.05 0-37.51-16.97-37.51-38.02 0-21.05 16.46-38.02 37.51-38.02 11.35 0 19.65 4.47 25.77 10.21l10.08-10.08c-8.55-8.17-19.9-14.42-35.85-14.42-28.83 0-53.07 23.47-53.07 52.31 0 28.83 24.24 52.31 53.07 52.31 15.56 0 27.3-5.1 36.49-14.67 9.44-9.44 12.38-22.71 12.38-33.43 0-3.32-.26-6.18-.77-8.73"/><g transform="translate(424 60.402)"><mask id="b" fill="#fff"><use xlink:href="#a"/></mask><path fill="#D12F2D" d="M101.307 47.965h-47.67v14.76h33.61c-1.11 7.53-3.72 13.4-7.63 17.32-4.98 4.98-12.76 10.46-26.41 10.46-21.05 0-37.51-16.97-37.51-38.02 0-21.05 16.46-38.02 37.51-38.02 11.35 0 19.65 4.47 25.77 10.21l10.08-10.08c-8.55-8.17-19.9-14.42-35.85-14.42-28.83 0-53.07 23.47-53.07 52.31 0 28.83 24.24 52.31 53.07 52.31 15.56 0 27.3-5.1 36.49-14.67 9.44-9.44 12.38-22.71 12.38-33.43 0-3.32-.26-6.18-.77-8.73" mask="url(#b)"/></g><g transform="translate(65 77.402)"><mask id="d" fill="#fff"><use xlink:href="#c"/></mask><path fill="#4368B1" d="M25.6 12.998c0 7.07-5.73 12.8-12.8 12.8S0 20.068 0 12.998 5.73.198 12.8.198s12.8 5.73 12.8 12.8" mask="url(#d)"/></g><g transform="translate(65 128.402)"><mask id="f" fill="#fff"><use xlink:href="#e"/></mask><path fill="#4368B1" d="M25.6 13.198c0 7.07-5.73 12.8-12.8 12.8S0 20.268 0 13.198 5.73.398 12.8.398s12.8 5.73 12.8 12.8" mask="url(#f)"/></g></g></svg>
