<?xml version="1.0" encoding="UTF-8" ?>
<!DOCTYPE svg PUBLIC "-//W3C//DTD SVG 1.1//EN" "http://www.w3.org/Graphics/SVG/1.1/DTD/svg11.dtd">
<svg width="1280pt" height="539pt" viewBox="0 0 1280 539" version="1.1" xmlns="http://www.w3.org/2000/svg">
<path fill="#ffffff" d=" M 0.00 0.00 L 1280.00 0.00 L 1280.00 539.00 L 1279.60 539.00 C 1279.53 514.38 1279.79 489.75 1279.47 465.13 C 1243.01 446.79 1206.63 428.31 1170.23 409.87 C 1110.45 378.66 1050.70 347.40 990.94 316.17 C 951.81 295.57 912.95 274.46 873.92 253.68 C 873.53 249.57 873.27 245.46 873.03 241.35 C 871.99 240.98 870.96 240.61 869.94 240.25 C 869.15 238.87 868.39 237.47 867.53 236.15 C 865.62 237.29 863.85 238.64 861.90 239.68 C 861.71 244.21 861.72 248.74 861.52 253.27 C 856.05 255.63 850.97 258.99 845.26 260.73 C 836.48 256.43 828.03 251.42 819.45 246.72 C 819.12 242.07 818.79 237.41 818.39 232.76 C 817.45 232.35 816.53 231.93 815.61 231.53 C 815.24 230.81 814.49 229.38 814.12 228.66 C 812.13 230.25 810.17 231.88 808.22 233.52 C 806.82 237.93 806.45 242.56 806.34 247.16 C 735.90 282.45 665.38 317.58 594.52 352.01 C 594.02 311.01 592.87 270.03 592.20 229.03 C 592.21 221.99 591.54 214.88 592.61 207.88 C 593.25 202.46 597.35 198.53 599.96 193.99 C 602.99 188.70 607.50 183.97 608.22 177.65 C 612.53 174.99 614.29 170.06 616.99 166.03 C 619.04 162.49 621.82 159.15 622.49 155.02 C 622.69 152.85 620.44 151.77 618.64 151.53 C 613.43 150.66 608.21 149.91 603.05 148.83 C 603.00 145.95 602.97 143.08 602.96 140.21 C 608.28 140.22 613.71 140.66 618.89 139.14 C 611.41 133.20 601.58 132.81 592.50 131.97 C 592.23 129.11 591.98 126.25 591.75 123.39 C 598.62 123.72 605.93 124.96 612.44 122.04 C 611.05 119.97 609.33 117.84 606.68 117.54 C 600.86 116.61 594.94 116.40 589.10 115.58 C 588.32 101.08 588.18 86.54 587.26 72.04 C 586.97 67.02 585.65 62.10 585.57 57.05 C 585.35 42.34 585.13 27.63 584.88 12.92 C 583.74 13.05 582.61 13.18 581.48 13.32 C 581.42 27.53 581.33 41.75 581.34 55.97 C 581.50 60.84 578.46 65.08 578.42 69.93 C 577.69 85.47 577.19 101.02 576.64 116.57 C 568.35 117.71 558.68 115.05 551.68 120.83 C 558.45 122.68 565.64 121.84 572.36 124.03 C 572.43 126.49 572.49 128.95 572.57 131.40 C 565.78 132.04 558.98 132.76 552.33 134.30 C 550.43 134.69 548.79 135.74 547.20 136.78 C 551.74 139.07 556.84 139.64 561.71 140.89 C 561.66 143.89 561.62 146.89 561.57 149.89 C 557.70 150.10 553.83 150.08 549.98 150.36 C 547.05 150.37 544.81 152.48 542.51 153.99 C 546.16 160.47 549.74 167.00 553.61 173.35 C 556.94 177.70 558.30 183.12 561.28 187.68 C 566.15 196.90 572.81 206.07 572.15 217.04 C 570.32 266.63 568.36 316.22 566.54 365.82 C 546.37 376.01 525.93 385.63 505.72 395.73 C 501.84 397.97 497.25 397.32 492.97 397.39 C 478.65 397.66 464.33 397.77 450.01 397.96 C 446.74 397.83 443.74 399.20 440.83 400.46 C 440.79 402.81 440.75 405.17 440.71 407.52 C 439.47 407.77 438.24 408.02 437.02 408.28 C 436.90 414.96 436.91 421.65 436.59 428.33 C 415.85 437.78 395.06 447.14 374.32 456.61 C 374.00 455.48 373.69 454.35 373.38 453.24 C 367.21 453.23 361.07 452.56 354.90 452.59 C 352.88 452.65 350.96 452.00 349.10 451.31 C 345.49 453.67 341.09 452.96 337.03 453.01 C 330.35 452.93 323.68 453.09 317.01 452.99 C 314.73 453.17 312.86 451.78 311.03 450.67 C 306.62 450.84 302.23 451.17 297.84 451.38 C 297.69 444.56 297.89 437.74 297.80 430.93 C 297.63 428.89 297.70 426.40 296.02 424.96 C 293.46 424.46 290.85 424.47 288.26 424.35 C 287.89 422.79 287.52 421.23 287.15 419.68 C 281.03 419.76 274.92 419.38 268.81 419.08 C 268.36 417.94 267.91 416.81 267.47 415.68 C 265.72 416.38 263.99 417.29 262.07 417.34 C 255.05 417.68 248.02 417.56 240.99 417.55 C 237.76 417.28 235.27 420.09 232.05 419.84 C 225.53 419.86 219.02 419.66 212.51 419.90 C 212.39 422.45 212.27 425.00 212.15 427.56 C 210.81 427.74 209.48 427.94 208.15 428.14 C 207.78 435.08 207.51 442.02 207.06 448.95 C 183.48 448.82 159.90 448.81 136.32 448.59 C 135.57 446.43 134.81 444.27 134.03 442.12 C 133.20 442.93 132.38 443.76 131.55 444.58 C 131.46 446.17 131.35 447.76 131.25 449.36 C 126.09 449.35 120.92 449.31 115.76 449.50 C 115.11 465.95 114.78 482.42 114.09 498.87 C 110.75 499.08 106.86 498.47 104.48 501.37 C 103.42 501.57 102.36 501.77 101.31 501.97 C 100.39 503.16 99.48 504.36 98.57 505.57 C 86.32 505.50 74.07 505.81 61.82 505.84 C 61.35 501.89 61.31 497.91 61.04 493.95 C 60.78 489.69 58.22 486.11 56.35 482.43 C 53.33 482.54 50.30 482.72 47.28 482.96 C 46.05 485.51 44.68 487.99 43.58 490.60 C 42.09 494.01 42.43 497.81 42.30 501.43 C 38.49 501.54 34.68 501.08 31.02 499.99 C 30.83 501.81 30.63 503.63 30.44 505.46 C 30.01 505.59 29.15 505.85 28.72 505.98 C 28.51 505.15 28.11 503.47 27.91 502.63 C 25.83 502.65 23.75 502.68 21.67 502.71 C 21.42 501.89 20.93 500.25 20.69 499.43 C 19.14 500.79 17.78 502.49 15.88 503.38 C 10.61 504.01 5.27 503.16 0.00 503.92 L 0.00 0.00 Z" />
<path fill="#cecece" d=" M 581.48 13.32 C 582.61 13.18 583.74 13.05 584.88 12.92 C 585.13 27.63 585.35 42.34 585.57 57.05 C 585.65 62.10 586.97 67.02 587.26 72.04 C 588.18 86.54 588.32 101.08 589.10 115.58 C 594.94 116.40 600.86 116.61 606.68 117.54 C 609.33 117.84 611.05 119.97 612.44 122.04 C 605.93 124.96 598.62 123.72 591.75 123.39 C 591.98 126.25 592.23 129.11 592.50 131.97 C 601.58 132.81 611.41 133.20 618.89 139.14 C 613.71 140.66 608.28 140.22 602.96 140.21 C 602.97 143.08 603.00 145.95 603.05 148.83 C 608.21 149.91 613.43 150.66 618.64 151.53 C 620.44 151.77 622.69 152.85 622.49 155.02 C 621.82 159.15 619.04 162.49 616.99 166.03 C 614.29 170.06 612.53 174.99 608.22 177.65 C 607.50 183.97 602.99 188.70 599.96 193.99 C 597.35 198.53 593.25 202.46 592.61 207.88 C 591.54 214.88 592.21 221.99 592.20 229.03 C 592.87 270.03 594.02 311.01 594.52 352.01 C 665.38 317.58 735.90 282.45 806.34 247.16 C 806.45 242.56 806.82 237.93 808.22 233.52 C 810.17 231.88 812.13 230.25 814.12 228.66 C 814.49 229.38 815.24 230.81 815.61 231.53 C 816.53 231.93 817.45 232.35 818.39 232.76 C 818.79 237.41 819.12 242.07 819.45 246.72 C 828.03 251.42 836.48 256.43 845.26 260.73 C 850.97 258.99 856.05 255.63 861.52 253.27 C 861.72 248.74 861.71 244.21 861.90 239.68 C 863.85 238.64 865.62 237.29 867.53 236.15 C 868.39 237.47 869.15 238.87 869.94 240.25 C 870.96 240.61 871.99 240.98 873.03 241.35 C 873.27 245.46 873.53 249.57 873.92 253.68 C 912.95 274.46 951.81 295.57 990.94 316.17 C 1050.70 347.40 1110.45 378.66 1170.23 409.87 C 1206.63 428.31 1243.01 446.79 1279.47 465.13 C 1279.79 489.75 1279.53 514.38 1279.60 539.00 L 0.00 539.00 L 0.00 503.92 C 5.27 503.16 10.61 504.01 15.88 503.38 C 17.78 502.49 19.14 500.79 20.69 499.43 C 20.93 500.25 21.42 501.89 21.67 502.71 C 23.75 502.68 25.83 502.65 27.91 502.63 C 28.11 503.47 28.51 505.15 28.72 505.98 C 29.15 505.85 30.01 505.59 30.44 505.46 C 30.63 503.63 30.83 501.81 31.02 499.99 C 34.68 501.08 38.49 501.54 42.30 501.43 C 42.43 497.81 42.09 494.01 43.58 490.60 C 44.68 487.99 46.05 485.51 47.28 482.96 C 50.30 482.72 53.33 482.54 56.35 482.43 C 58.22 486.11 60.78 489.69 61.04 493.95 C 61.31 497.91 61.35 501.89 61.82 505.84 C 74.07 505.81 86.32 505.50 98.57 505.57 C 99.48 504.36 100.39 503.16 101.31 501.97 C 102.36 501.77 103.42 501.57 104.48 501.37 C 106.86 498.47 110.75 499.08 114.09 498.87 C 114.78 482.42 115.11 465.95 115.76 449.50 C 120.92 449.31 126.09 449.35 131.25 449.36 C 131.35 447.76 131.46 446.17 131.55 444.58 C 132.38 443.76 133.20 442.93 134.03 442.12 C 134.81 444.27 135.57 446.43 136.32 448.59 C 159.90 448.81 183.48 448.82 207.06 448.95 C 207.51 442.02 207.78 435.08 208.15 428.14 C 209.48 427.94 210.81 427.74 212.15 427.56 C 212.27 425.00 212.39 422.45 212.51 419.90 C 219.02 419.66 225.53 419.86 232.05 419.84 C 235.27 420.09 237.76 417.28 240.99 417.55 C 248.02 417.56 255.05 417.68 262.07 417.34 C 263.99 417.29 265.72 416.38 267.47 415.68 C 267.91 416.81 268.36 417.94 268.81 419.08 C 274.92 419.38 281.03 419.76 287.15 419.68 C 287.52 421.23 287.89 422.79 288.26 424.35 C 290.85 424.47 293.46 424.46 296.02 424.96 C 297.70 426.40 297.63 428.89 297.80 430.93 C 297.89 437.74 297.69 444.56 297.84 451.38 C 302.23 451.17 306.62 450.84 311.03 450.67 C 312.86 451.78 314.73 453.17 317.01 452.99 C 323.68 453.09 330.35 452.93 337.03 453.01 C 341.09 452.96 345.49 453.67 349.10 451.31 C 350.96 452.00 352.88 452.65 354.90 452.59 C 361.07 452.56 367.21 453.23 373.38 453.24 C 373.69 454.35 374.00 455.48 374.32 456.61 C 395.06 447.14 415.85 437.78 436.59 428.33 C 436.91 421.65 436.90 414.96 437.02 408.28 C 438.24 408.02 439.47 407.77 440.71 407.52 C 440.75 405.17 440.79 402.81 440.83 400.46 C 443.74 399.20 446.74 397.83 450.01 397.96 C 464.33 397.77 478.65 397.66 492.97 397.39 C 497.25 397.32 501.84 397.97 505.72 395.73 C 525.93 385.63 546.37 376.01 566.54 365.82 C 568.36 316.22 570.32 266.63 572.15 217.04 C 572.81 206.07 566.15 196.90 561.28 187.68 C 558.30 183.12 556.94 177.70 553.61 173.35 C 549.74 167.00 546.16 160.47 542.51 153.99 C 544.81 152.48 547.05 150.37 549.98 150.36 C 553.83 150.08 557.70 150.10 561.57 149.89 C 561.62 146.89 561.66 143.89 561.71 140.89 C 556.84 139.64 551.74 139.07 547.20 136.78 C 548.79 135.74 550.43 134.69 552.33 134.30 C 558.98 132.76 565.78 132.04 572.57 131.40 C 572.49 128.95 572.43 126.49 572.36 124.03 C 565.64 121.84 558.45 122.68 551.68 120.83 C 558.68 115.05 568.35 117.71 576.64 116.57 C 577.19 101.02 577.69 85.47 578.42 69.93 C 578.46 65.08 581.50 60.84 581.34 55.97 C 581.33 41.75 581.42 27.53 581.48 13.32 Z" />
<path fill="#ffffff" d=" M 594.83 355.05 C 665.20 319.78 735.54 284.47 806.00 249.38 C 806.00 259.80 805.96 270.22 805.74 280.63 C 771.14 297.75 736.58 314.97 702.00 332.12 C 666.64 349.31 630.98 365.86 595.41 382.61 C 594.90 373.43 594.99 364.23 594.83 355.05 Z" />
<path fill="#ffffff" d=" M 819.64 249.05 C 827.76 253.20 835.74 257.69 843.54 262.45 C 835.51 266.16 827.52 269.95 819.45 273.58 C 819.40 265.40 819.60 257.22 819.64 249.05 Z" />
<path fill="#ffffff" d=" M 847.18 262.32 C 851.94 259.82 856.74 257.40 861.56 255.02 C 861.71 259.73 861.89 264.45 862.01 269.17 C 857.03 266.97 852.06 264.72 847.18 262.32 Z" />
<path fill="#ffffff" d=" M 874.14 256.79 C 964.71 304.29 1054.88 352.57 1146.03 398.95 C 1189.97 421.40 1233.80 444.06 1277.82 466.35 C 1278.18 472.92 1277.93 479.51 1277.98 486.09 C 1242.97 468.44 1207.99 450.74 1173.05 432.98 C 1135.77 413.94 1098.29 395.29 1061.37 375.57 C 998.54 342.39 935.77 309.08 873.01 275.77 C 873.29 269.44 873.81 263.12 874.14 256.79 Z" />
<path fill="#ffffff" d=" M 818.97 276.95 C 827.70 272.64 836.37 268.16 845.23 264.12 C 850.84 265.95 855.97 269.23 861.28 271.83 C 861.12 289.75 861.28 307.68 860.89 325.59 C 854.61 328.47 848.49 331.69 842.20 334.53 C 834.56 329.84 826.90 325.20 819.23 320.58 C 818.98 306.04 819.02 291.49 818.97 276.95 Z" />
<path fill="#ffffff" d=" M 873.02 278.57 C 963.43 325.99 1053.70 373.72 1144.48 420.44 C 1188.97 443.38 1233.34 466.56 1277.89 489.37 C 1277.86 491.77 1277.76 494.17 1277.63 496.57 C 1267.40 496.53 1257.18 496.85 1246.96 496.83 C 1244.70 496.67 1243.63 498.98 1242.12 500.21 C 1240.79 502.02 1238.39 501.74 1236.43 502.10 C 1235.95 492.67 1235.98 483.22 1235.29 473.80 C 1233.13 473.27 1231.00 472.71 1228.87 472.14 C 1228.67 470.63 1228.49 469.12 1228.31 467.62 C 1221.24 467.58 1214.17 467.56 1207.10 467.63 C 1206.65 471.02 1206.19 474.41 1205.75 477.80 C 1200.25 478.07 1194.75 478.27 1189.25 478.39 C 1188.70 483.70 1188.58 489.04 1188.06 494.35 C 1153.78 476.97 1119.66 459.26 1085.62 441.42 C 1047.11 421.12 1009.10 399.91 970.84 379.13 C 938.47 361.45 906.08 343.80 873.72 326.08 C 873.36 310.24 873.18 294.41 873.02 278.57 Z" />
<path fill="#ffffff" d=" M 697.73 336.75 C 733.61 319.04 769.38 301.11 805.27 283.43 C 805.42 295.89 805.55 308.36 805.51 320.82 C 770.20 338.02 734.97 355.39 699.65 372.57 C 665.26 388.89 630.66 404.77 596.03 420.57 C 595.73 408.94 595.64 397.31 595.17 385.69 C 606.84 379.67 618.91 374.43 630.73 368.71 C 653.11 358.14 675.39 347.39 697.73 336.75 Z" />
<path fill="#ffffff" d=" M 698.54 375.55 C 733.99 358.29 769.32 340.79 804.81 323.63 C 804.84 333.27 805.25 342.92 804.84 352.55 C 768.06 369.81 731.39 387.31 694.58 404.48 C 662.05 419.36 629.59 434.37 597.04 449.17 C 596.73 440.58 596.43 431.98 596.27 423.38 C 630.41 407.54 664.65 391.90 698.54 375.55 Z" />
<path fill="#ffffff" d=" M 819.67 324.14 C 826.70 327.94 833.71 331.77 840.58 335.85 C 833.59 339.14 826.52 342.24 819.45 345.34 C 819.42 338.27 819.55 331.20 819.67 324.14 Z" />
<path fill="#ffffff" d=" M 845.84 335.69 C 850.83 333.14 855.79 330.51 860.81 328.01 C 860.82 333.31 860.82 338.62 860.81 343.93 C 855.82 341.18 850.60 338.83 845.84 335.69 Z" />
<path fill="#ffffff" d=" M 874.04 329.14 C 926.53 358.07 979.06 386.96 1031.95 415.17 C 1083.73 442.55 1135.83 469.33 1187.75 496.42 C 1188.68 502.11 1187.93 508.01 1188.09 513.78 C 1184.85 513.97 1181.30 515.55 1178.24 513.83 C 1145.90 497.14 1113.50 480.55 1081.32 463.55 C 1036.39 439.71 991.77 415.27 946.99 391.15 C 922.44 377.82 897.80 364.68 873.32 351.24 C 873.57 343.87 873.74 336.50 874.04 329.14 Z" />
<path fill="#ffffff" d=" M 819.68 348.70 C 827.42 344.77 835.23 340.96 843.03 337.13 C 849.00 340.37 854.97 343.63 860.83 347.07 C 860.72 363.99 860.59 380.90 860.59 397.82 C 853.83 401.23 846.93 404.34 840.07 407.53 C 833.68 403.70 827.36 399.77 820.97 395.96 C 819.95 395.25 818.41 394.59 818.74 393.07 C 819.00 378.28 819.29 363.49 819.68 348.70 Z" />
<path fill="#ffffff" d=" M 873.37 353.45 C 923.32 380.57 973.09 408.03 1023.25 434.77 C 1073.29 461.33 1123.61 487.37 1173.61 514.00 C 1169.13 514.27 1164.65 514.83 1160.17 514.70 C 1158.79 513.39 1157.85 511.73 1156.79 510.21 C 1153.18 510.51 1150.15 508.80 1147.80 506.20 C 1146.61 506.14 1145.44 506.10 1144.28 506.06 C 1144.12 506.81 1143.79 508.31 1143.63 509.06 C 1141.45 508.88 1139.29 508.71 1137.13 508.54 C 1136.58 507.11 1136.03 505.66 1135.51 504.24 C 1129.81 503.88 1124.10 504.02 1118.40 503.80 C 1118.19 505.37 1118.00 506.95 1117.82 508.53 C 1113.55 508.57 1109.29 508.65 1105.03 508.88 C 1104.71 510.27 1104.43 511.68 1104.14 513.09 C 1096.54 513.32 1088.94 513.60 1081.35 513.81 C 1080.55 510.36 1079.77 506.90 1078.95 503.45 C 1074.42 503.57 1069.89 503.71 1065.37 503.82 C 1064.88 495.50 1064.52 487.18 1063.99 478.87 C 1060.12 478.71 1056.27 478.59 1052.41 478.54 C 1052.04 476.29 1051.67 474.05 1051.30 471.81 C 1040.71 471.85 1030.13 471.52 1019.55 471.53 C 1019.21 473.72 1018.93 475.91 1018.70 478.12 C 997.60 467.97 977.04 456.76 956.60 445.35 C 929.08 429.86 901.51 414.48 874.03 398.93 C 873.78 383.77 873.51 368.61 873.37 353.45 Z" />
<path fill="#ffffff" d=" M 703.73 402.77 C 737.35 386.92 770.90 370.94 804.56 355.17 C 804.51 368.50 804.40 381.83 804.31 395.16 C 768.51 411.85 732.58 428.29 696.71 444.83 C 664.50 459.52 632.02 473.62 599.63 487.89 C 598.16 489.32 597.48 487.05 597.67 486.04 C 597.47 474.70 597.17 463.36 596.99 452.02 C 632.61 435.69 668.20 419.31 703.73 402.77 Z" />
<path fill="#ffffff" d=" M 543.65 379.62 C 551.08 375.97 558.47 372.23 565.94 368.65 C 565.51 378.26 565.21 387.87 564.65 397.47 C 555.71 401.99 546.69 406.39 537.45 410.28 C 537.42 408.84 537.39 407.41 537.37 405.98 C 536.78 405.64 535.59 404.95 535.00 404.61 C 533.99 401.98 533.27 398.61 530.45 397.36 C 527.62 396.62 524.75 396.07 522.01 395.06 C 519.95 395.52 518.29 397.45 516.01 396.85 C 512.87 396.30 509.83 397.29 506.79 397.90 C 518.84 391.35 531.44 385.85 543.65 379.62 Z" />
<path fill="#ffffff" d=" M 640.36 472.31 C 695.04 447.99 749.36 422.87 803.80 398.03 C 803.83 406.63 803.82 415.23 803.81 423.84 C 758.64 444.19 713.53 464.70 668.22 484.74 C 668.08 483.27 667.95 481.79 667.83 480.33 C 664.12 480.34 660.41 480.36 656.71 480.45 C 656.10 479.50 655.49 478.56 654.89 477.62 C 653.58 478.83 652.26 480.03 650.98 481.28 C 652.80 481.95 654.75 482.10 656.68 482.21 C 656.58 483.60 656.49 485.01 656.41 486.41 C 654.48 486.51 652.54 486.58 650.62 486.65 C 650.34 488.35 650.06 490.06 649.80 491.78 C 642.38 495.03 634.96 498.27 627.57 501.59 C 625.55 502.59 623.29 502.90 621.07 502.89 C 614.62 502.97 608.18 503.15 601.74 503.16 C 601.52 504.14 601.31 505.13 601.10 506.12 C 600.34 506.20 598.80 506.36 598.04 506.44 C 597.88 501.52 597.89 496.61 597.67 491.70 C 611.73 484.89 626.16 478.83 640.36 472.31 Z" />
<path fill="#ffffff" d=" M 818.72 397.84 C 824.99 401.32 831.20 404.92 837.41 408.52 C 831.27 411.60 824.96 414.30 818.71 417.13 C 818.64 410.70 818.64 404.27 818.72 397.84 Z" />
<path fill="#ffffff" d=" M 537.83 412.89 C 547.05 408.85 555.96 404.17 565.02 399.78 C 564.63 411.80 564.25 423.84 563.62 435.84 C 555.05 440.76 545.87 444.75 536.58 448.21 C 536.78 436.43 537.41 424.66 537.83 412.89 Z" />
<path fill="#ffffff" d=" M 841.93 408.80 C 847.93 405.93 853.96 403.10 859.98 400.25 C 860.05 406.04 860.03 411.82 860.00 417.61 C 853.93 414.75 847.93 411.77 841.93 408.80 Z" />
<path fill="#ffffff" d=" M 874.01 401.74 C 901.65 417.18 929.33 432.54 957.05 447.84 C 977.46 458.91 998.01 469.76 1018.37 480.93 C 1018.52 483.88 1018.64 486.82 1018.74 489.78 C 1013.17 490.84 1007.57 491.70 1002.01 492.74 C 999.86 493.07 997.52 493.79 995.57 492.47 C 977.46 482.58 959.30 472.78 941.22 462.83 C 941.00 459.75 940.77 456.67 940.51 453.60 C 933.81 453.02 926.85 453.65 920.37 451.64 C 904.96 443.15 889.62 434.50 874.31 425.81 C 874.23 417.78 874.03 409.76 874.01 401.74 Z" />
<path fill="#ffffff" d=" M 838.76 410.79 C 840.60 409.63 842.37 411.27 844.00 412.03 C 849.06 414.97 854.35 417.51 859.34 420.58 C 859.42 437.29 859.70 454.01 859.78 470.72 C 852.86 473.84 845.99 477.04 839.08 480.16 C 837.61 481.21 836.14 479.88 834.84 479.25 C 829.51 476.05 824.14 472.94 818.77 469.83 C 818.81 453.03 818.95 436.21 819.24 419.41 C 825.76 416.58 832.24 413.63 838.76 410.79 Z" />
<path fill="#ffffff" d=" M 668.50 486.82 C 713.49 466.79 758.50 446.78 803.57 426.93 C 803.58 441.23 803.55 455.54 803.59 469.85 C 795.99 473.26 788.24 476.30 780.61 479.60 C 777.58 481.00 774.18 480.55 770.96 480.65 C 771.14 481.67 771.32 482.69 771.51 483.72 C 750.73 492.82 729.90 501.84 709.27 511.28 C 705.95 512.50 702.32 511.89 698.87 512.09 C 698.15 506.94 699.02 501.22 695.90 496.71 C 694.67 498.99 694.48 502.08 692.16 503.60 C 691.42 501.61 690.73 499.62 690.04 497.63 C 689.29 497.61 688.55 497.59 687.82 497.58 C 687.31 497.12 686.29 496.20 685.78 495.74 C 683.83 495.86 682.60 498.03 681.06 499.10 C 680.80 503.14 680.57 507.19 680.23 511.23 C 676.63 512.14 672.83 512.87 669.45 510.81 C 669.11 502.81 668.83 494.81 668.50 486.82 Z" />
<path fill="#ffffff" d=" M 874.35 428.72 C 888.75 436.58 903.25 444.31 917.44 452.55 C 914.48 452.59 911.53 452.60 908.59 452.63 C 908.57 455.07 908.57 457.51 908.60 459.95 C 901.95 460.68 895.26 460.03 888.62 460.67 C 888.09 466.79 887.77 472.92 887.26 479.04 C 883.05 476.60 878.55 474.55 874.73 471.54 C 874.43 457.28 874.47 442.99 874.35 428.72 Z" />
<path fill="#ffffff" d=" M 374.08 460.01 C 394.93 450.11 415.83 440.30 436.61 430.22 C 436.49 439.16 436.20 448.10 436.04 457.05 C 415.64 466.98 395.09 476.65 374.09 485.29 C 374.03 476.86 374.06 468.44 374.08 460.01 Z" />
<path fill="#ffffff" d=" M 476.84 440.15 C 482.45 438.15 487.98 435.92 493.66 434.12 C 493.80 437.27 493.79 440.42 493.66 443.58 C 488.10 443.61 482.54 443.60 476.98 443.57 C 476.92 442.42 476.87 441.28 476.84 440.15 Z" />
<path fill="#ffffff" d=" M 477.05 434.70 C 479.45 434.63 481.85 434.64 484.26 434.76 C 482.32 436.51 479.88 437.45 477.40 438.14 C 477.31 437.28 477.14 435.56 477.05 434.70 Z" />
<path fill="#ffffff" d=" M 540.07 449.11 C 547.95 445.91 555.56 442.08 563.29 438.56 C 563.04 447.51 562.66 456.46 562.29 465.41 C 553.68 468.83 545.28 472.77 536.67 476.19 C 536.65 468.12 536.68 460.05 536.84 451.98 C 536.59 450.11 538.87 449.83 540.07 449.11 Z" />
<path fill="#ffffff" d=" M 477.03 446.20 C 483.03 446.20 489.02 446.18 495.02 446.22 C 495.11 449.78 495.12 453.34 495.05 456.90 C 489.04 456.72 483.04 456.82 477.03 456.80 C 476.94 453.26 476.94 449.73 477.03 446.20 Z" />
<path fill="#ffffff" d=" M 477.16 475.87 C 477.34 470.43 477.08 464.98 477.65 459.56 C 483.45 459.70 489.25 459.57 495.05 459.67 C 495.07 462.16 495.09 464.66 495.11 467.16 C 489.18 470.18 483.17 473.04 477.16 475.87 Z" />
<path fill="#ffffff" d=" M 374.19 488.20 C 394.80 478.79 415.48 469.53 436.21 460.39 C 436.03 472.11 435.81 483.84 435.48 495.56 C 415.02 495.64 394.55 495.56 374.09 495.60 C 374.10 493.13 374.13 490.66 374.19 488.20 Z" />
<path fill="#ffffff" d=" M 941.94 466.96 C 960.21 476.76 978.42 486.67 996.69 496.46 C 996.81 501.79 996.78 507.14 996.71 512.48 C 993.94 512.73 991.18 512.91 988.42 512.98 C 987.65 511.01 986.85 509.07 986.03 507.14 C 983.78 507.03 981.54 506.91 979.32 506.78 C 978.73 505.98 978.16 505.18 977.59 504.39 C 968.24 504.14 958.88 504.18 949.54 503.69 C 949.18 498.53 948.91 493.37 948.57 488.22 C 946.46 487.63 944.35 487.05 942.26 486.49 C 942.01 479.98 942.00 473.47 941.94 466.96 Z" />
<path fill="#ffffff" d=" M 536.82 479.05 C 544.61 474.56 553.02 471.34 561.43 468.23 C 561.17 479.48 560.91 490.74 560.69 501.99 C 561.58 506.58 555.78 506.68 552.91 508.28 C 552.65 506.59 552.40 504.90 552.15 503.21 C 546.81 502.93 541.47 502.78 536.14 502.53 C 536.29 494.70 536.57 486.87 536.82 479.05 Z" />
<path fill="#ffffff" d=" M 477.29 478.15 C 483.25 475.30 489.26 472.55 495.39 470.07 C 495.41 474.76 495.43 479.46 495.30 484.15 C 489.26 483.90 483.20 484.14 477.17 483.74 C 477.20 481.87 477.24 480.01 477.29 478.15 Z" />
<path fill="#ffffff" d=" M 818.99 471.64 C 824.46 474.86 829.77 478.35 835.18 481.69 C 829.63 484.38 823.85 486.54 818.16 488.90 C 818.43 483.15 818.63 477.39 818.99 471.64 Z" />
<path fill="#ffffff" d=" M 782.73 480.69 C 789.70 477.99 796.57 475.01 803.54 472.28 C 803.34 480.07 803.10 487.86 802.82 495.65 C 798.51 497.56 794.24 499.57 789.91 501.41 C 789.84 497.30 789.86 493.20 789.84 489.09 C 789.07 488.55 788.30 488.02 787.55 487.49 C 787.38 485.58 787.22 483.68 787.08 481.79 C 785.62 481.42 784.17 481.06 782.73 480.69 Z" />
<path fill="#ffffff" d=" M 839.99 481.82 C 846.49 478.82 853.02 475.89 859.57 473.01 C 859.58 479.61 859.56 486.21 859.58 492.81 C 853.00 489.24 846.48 485.56 839.99 481.82 Z" />
<path fill="#ffffff" d=" M 874.99 476.24 C 877.46 477.16 879.88 478.22 882.20 479.47 C 879.80 479.65 877.39 479.75 875.00 479.83 C 874.99 478.63 874.98 477.43 874.99 476.24 Z" />
<path fill="#ffffff" d=" M 818.71 490.98 C 825.02 488.30 831.34 485.64 837.72 483.12 C 844.74 487.24 851.99 491.01 858.89 495.33 C 859.97 499.40 859.26 503.78 859.55 507.98 C 855.38 508.00 851.21 508.01 847.05 507.98 C 846.96 506.22 846.87 504.46 846.80 502.71 C 840.39 502.39 833.98 502.69 827.57 502.86 C 827.53 504.57 827.51 506.30 827.49 508.02 C 824.71 508.16 821.93 508.20 819.16 508.13 C 819.00 502.41 818.84 496.69 818.71 490.98 Z" />
<path fill="#ffffff" d=" M 768.84 486.72 C 771.04 485.70 773.31 484.84 775.61 484.07 C 775.68 485.27 775.75 486.47 775.83 487.69 C 773.33 487.94 770.85 488.20 768.36 488.46 C 767.78 494.99 767.39 501.54 766.85 508.08 C 752.92 508.57 738.98 508.62 725.04 508.88 C 721.99 508.68 719.93 511.22 717.74 512.91 C 716.00 512.70 714.29 512.37 712.63 511.86 C 731.26 503.25 750.14 495.19 768.84 486.72 Z" />
<path fill="#ffffff" d=" M 477.07 487.02 C 483.30 487.04 489.53 486.94 495.76 486.85 C 495.74 490.02 495.62 493.19 495.38 496.35 C 489.29 496.03 483.18 496.22 477.09 496.14 C 477.04 493.10 477.04 490.06 477.07 487.02 Z" />
<path fill="#ffffff" d=" M 626.00 503.99 C 633.89 500.91 641.81 497.91 649.74 494.94 C 649.75 500.11 649.84 505.29 649.64 510.47 C 647.51 510.59 645.37 510.88 643.25 510.68 C 641.75 509.07 640.30 507.22 638.05 506.68 C 635.28 507.39 632.97 509.23 631.37 511.55 C 629.64 511.59 627.93 511.63 626.22 511.67 C 626.15 509.10 626.07 506.55 626.00 503.99 Z" />
<path fill="#ffffff" d=" M 790.06 503.36 C 794.42 501.56 798.67 499.52 803.04 497.72 C 803.04 501.83 802.96 505.93 802.89 510.04 C 798.63 511.64 794.27 512.95 789.91 514.27 C 789.79 510.63 789.76 506.98 790.06 503.36 Z" />
</svg>
